<svg width="24" height="27" viewBox="0 0 24 27" fill="none" xmlns="http://www.w3.org/2000/svg">
<path d="M21.3333 3.00001H15.76C15.2 1.45334 13.7333 0.333344 12 0.333344C10.2667 0.333344 8.8 1.45334 8.24 3.00001H2.66667C1.2 3.00001 0 4.20001 0 5.66668V24.3333C0 25.8 1.2 27 2.66667 27H21.3333C22.8 27 24 25.8 24 24.3333V5.66668C24 4.20001 22.8 3.00001 21.3333 3.00001ZM12 3.00001C12.7333 3.00001 13.3333 3.60001 13.3333 4.33334C13.3333 5.06668 12.7333 5.66668 12 5.66668C11.2667 5.66668 10.6667 5.06668 10.6667 4.33334C10.6667 3.60001 11.2667 3.00001 12 3.00001ZM12 8.33334C14.2133 8.33334 16 10.12 16 12.3333C16 14.5467 14.2133 16.3333 12 16.3333C9.78667 16.3333 8 14.5467 8 12.3333C8 10.12 9.78667 8.33334 12 8.33334ZM20 24.3333H4V22.4667C4 19.8 9.33333 18.3333 12 18.3333C14.6667 18.3333 20 19.8 20 22.4667V24.3333Z" fill="#E94F37"/>
</svg>
